<svg clip-rule="evenodd" fill-rule="evenodd" stroke-linecap="round" stroke-linejoin="round" viewBox="0 0 16 16" xmlns="http://www.w3.org/2000/svg">
  <path d="m4.268 1.729c-2.023 0-3.688 1.665-3.688 3.689 0 4.047 2.997 7.378 6.64 7.378.629 0 1.239-.1 1.818-.285m-6.983-7.093c0 3.238 2.331 5.902 5.165 5.902m2.951-8.116c1.214 0 2.213 1 2.213 2.214m1.067 2.533c.264-.792.408-1.645.408-2.533 0-2.024-1.665-3.689-3.688-3.689-1.619 0-2.951 1.332-2.951 2.951 0-1.619-1.333-2.951-2.952-2.951m6.726 3.689c0 2.428-1.998 4.426-4.427 4.426 2.429 0 4.427 1.999 4.427 4.427 0-2.428 1.998-4.427 4.426-4.427-2.428 0-4.426-1.998-4.426-4.426" fill="none" stroke="#000" stroke-width=".5"/>
</svg>
